<svg xmlns="http://www.w3.org/2000/svg" viewBox="0 0 252.02 59.91"><defs><style>.cls-1{fill:#0d0d0d;}</style></defs><g id="Layer_2" data-name="Layer 2"><g id="Layer_1-2" data-name="Layer 1"><path class="cls-1" d="M9.4,48.36a16,16,0,0,0,.25,2.79,7,7,0,0,0,.94,2.54,5.38,5.38,0,0,0,1.77,1.78,5.3,5.3,0,0,0,2.8.68v3.21H0V56.15a5.24,5.24,0,0,0,2.79-.68,5.32,5.32,0,0,0,1.78-1.78,7,7,0,0,0,.93-2.54,16,16,0,0,0,.26-2.79L5.59,11.94A3.91,3.91,0,0,0,4.23,8.77,5.4,5.4,0,0,0,.59,7.62V4.4h19l16.6,37.69,15-37.6H69.78V7.71A5.77,5.77,0,0,0,67,8.3a4.76,4.76,0,0,0-1.78,1.61,6.34,6.34,0,0,0-.93,2.33A14.34,14.34,0,0,0,64,15V48.36a16,16,0,0,0,.26,2.79,7.19,7.19,0,0,0,.93,2.54A5.32,5.32,0,0,0,67,55.47a5.24,5.24,0,0,0,2.79.68v3.21H45.39V56.15a5.3,5.3,0,0,0,2.8-.68A5.38,5.38,0,0,0,50,53.69a7,7,0,0,0,.94-2.54,16,16,0,0,0,.25-2.79V15L33.28,59.79H29.81L9.23,12.7Z"/><path class="cls-1" d="M91.46,50.9c0,2.2.24,3.62.72,4.27a2.91,2.91,0,0,0,2.5,1v3.21H75.37V56.15a2.85,2.85,0,0,0,2.5-1q.72-1,.72-4.32V32.1A7.39,7.39,0,0,0,78,29c-.37-.76-1.18-1.08-2.42-1V24.81L89,20.24h2.46Z"/><path class="cls-1" d="M116.36,26.08a16.54,16.54,0,0,1,5.88-4.44A17.66,17.66,0,0,1,129,20.07a13.61,13.61,0,0,1,4.65.8,11.27,11.27,0,0,0,3.9,2.42,11.72,11.72,0,0,1,2.71,4,14.65,14.65,0,0,1,1,5.72V50.9c0,2.2.23,3.62.71,4.27a2.92,2.92,0,0,0,2.5,1v3.21h-19.3V56.15a2.84,2.84,0,0,0,2.49-1q.72-1,.72-4.32V36.33c0-1.58,0-3-.08-4.23a13.63,13.63,0,0,0-.47-3.18,3.78,3.78,0,0,0-1.23-2,3.84,3.84,0,0,0-2.45-.68A7.52,7.52,0,0,0,120,27.52a17.58,17.58,0,0,0-3.64,3.22V50.9c0,2.2.24,3.62.72,4.27a2.91,2.91,0,0,0,2.5,1v3.21H100.27V56.15a2.86,2.86,0,0,0,2.5-1c.47-.68.72-2.12.72-4.32V32.1a7.39,7.39,0,0,0-.55-3.1c-.37-.76-1.18-1.08-2.42-1V24.81l13.38-4.57h2.46Z"/><path class="cls-1" d="M166.15,50.9c0,2.2.24,3.62.72,4.27a2.91,2.91,0,0,0,2.5,1v3.21H150.06V56.15a2.85,2.85,0,0,0,2.5-1q.72-1,.72-4.32V32.1a7.23,7.23,0,0,0-.55-3.1c-.37-.76-1.17-1.08-2.41-1V24.81l13.38-4.57h2.45Z"/><path class="cls-1" d="M188.34,59.36V56.15a5.24,5.24,0,0,0,2.79-.68,5.32,5.32,0,0,0,1.78-1.78,7.19,7.19,0,0,0,.93-2.54,16,16,0,0,0,.26-2.79V15.5a15.79,15.79,0,0,0-.26-2.84,7.27,7.27,0,0,0-.93-2.5,5.41,5.41,0,0,0-1.78-1.78,5.24,5.24,0,0,0-2.79-.67V4.49h10.41l20.75.17h11.44V23.71h-1.87a73.26,73.26,0,0,0-3.47-8A16,16,0,0,0,222,11a11,11,0,0,0-4.79-2.37,31.35,31.35,0,0,0-7-.64c-.57,0-1.10,0-1.61,0s-1.05.07-1.61.13V29.81h4.4a7.46,7.46,0,0,0,3.22-.72,11.43,11.43,0,0,0,2.75-1.82,8.75,8.75,0,0,0,1.95-2.46,6.5,6.5,0,0,0,.81-2.54h1.77v18.8H220.1a6.55,6.55,0,0,0-.81-2.54,9.69,9.69,0,0,0-1.95-2.5,10.75,10.75,0,0,0-2.75-1.86,7.46,7.46,0,0,0-3.22-.72H207V48.36a16,16,0,0,0,.25,2.79,7.19,7.19,0,0,0,.93,2.54,5.5,5.5,0,0,0,1.78,1.78,5.3,5.3,0,0,0,2.8.68v3.21Z"/><path class="cls-1" d="M248.8,50.9c0,2.2.24,3.62.72,4.27a2.91,2.91,0,0,0,2.5,1v3.21H232.71V56.15a2.85,2.85,0,0,0,2.5-1q.72-1,.72-4.32V32.1a7.39,7.39,0,0,0-.55-3.1c-.37-.76-1.17-1.08-2.42-1V24.81l13.38-4.57h2.46Z"/><circle class="cls-1" cx="84.9" cy="7.58" r="7.58"/><circle class="cls-1" cx="159.72" cy="7.58" r="7.58"/><circle class="cls-1" cx="242.36" cy="7.58" r="7.58"/><circle class="cls-1" cx="179.09" cy="52.34" r="7.58"/></g></g></svg>
